<svg width="883" height="717" viewBox="0 0 883 717" fill="none" xmlns="http://www.w3.org/2000/svg">
<g clip-path="url(#clip0_105_58)">
<path d="M770.397 402.619L790.931 382.074C789.06 368.454 786.423 354.951 783.031 341.628L771.328 347.551L781.842 337.032C777.484 320.6 773.558 309.994 773.558 309.994C773.558 309.994 732.176 352.138 710.787 401.559L724.039 436.398L705.908 414.001C703.84 419.849 702.142 425.821 700.824 431.882C687.738 493.032 697.101 546.878 721.737 552.15C746.373 557.423 776.953 512.124 790.039 450.974C794.096 432.016 794.052 411.265 792.062 391.653L770.397 402.619Z" fill="#90DA90"/>
<path d="M831.419 445.292L859.616 438.318C865.055 425.692 869.777 412.769 873.76 399.611L860.68 398.633L875.117 395.063C879.881 378.743 882.002 367.635 882.002 367.635C882.002 367.635 824.793 382.321 780.938 413.572L774.274 450.245L770.329 421.701C765.536 425.638 760.996 429.872 756.734 434.379C713.923 479.963 694.105 530.897 712.47 548.145C730.834 565.393 780.427 542.422 823.238 496.839C836.51 482.707 847.198 464.92 855.633 447.103L831.419 445.292Z" fill="#90DA90"/>
<path d="M562.298 191.976L569.225 137.607C550.709 119.439 531.182 102.331 510.739 86.3623L500.112 108.714L503.659 80.8767C478.185 61.3824 460.081 50.0859 460.081 50.0859C460.081 50.0859 446.973 160.761 472.106 259.213L532.106 295.91L479.189 283.417C482.854 294.532 487.214 305.405 492.244 315.972C543.31 422.346 619.45 491.901 662.305 471.328C705.161 450.754 698.505 347.842 647.438 241.468C631.607 208.491 607.583 177.572 581.971 150.598L562.298 191.976Z" fill="#90DA90"/>
<path d="M702.637 185.218L736.671 142.257C730.211 117.133 722.339 92.3944 713.092 68.1577L692.442 81.7985L709.867 59.8021C698.136 29.9463 688.478 10.918 688.478 10.918C688.478 10.918 620.049 98.8855 590.674 196.156L623.068 258.585L584.226 220.537C581.618 231.946 579.73 243.508 578.573 255.154C567.304 372.611 596.53 471.51 643.851 476.05C691.172 480.59 738.668 389.053 749.938 271.595C753.432 235.182 748.849 196.296 740.866 159.966L702.637 185.218Z" fill="#90DA90"/>
<path d="M75.2349 199.967L71.7921 142.919C49.299 127.895 25.9765 114.152 1.93552 101.755L-4.61925 126.715L-6.38182 97.5069C-36.2613 82.4724 -57 74.4082 -57 74.4082C-57 74.4082 -48.9739 190.343 -4.13699 286.34L64.4509 312.307L7.81194 309.766C13.7214 320.443 20.2965 330.738 27.4985 340.59C100.441 439.676 191.935 496.179 231.855 466.792C271.775 437.405 245.004 333.256 172.061 234.17C149.448 203.452 118.84 176.43 87.3693 153.759L75.2349 199.967Z" fill="#90DA90"/>
<path d="M217.711 165.836L244.252 115.221C232.763 90.7335 219.902 66.9131 205.73 43.8736L187.216 61.8529L200.805 35.9381C182.998 7.6232 169.414 -10 169.414 -10C169.414 -10 116.358 93.3939 105.119 198.748L150.411 256.43L103.239 224.978C102.779 237.173 103.086 249.384 104.158 261.541C115.383 384.068 164.499 479.73 213.862 475.207C263.226 470.685 294.144 367.692 282.919 245.165C279.439 207.18 267.206 168.227 251.984 132.552L217.711 165.836Z" fill="#90DA90"/>
<path d="M366.193 678C385.523 678 401.193 673.523 401.193 668C401.193 662.477 385.523 658 366.193 658C346.863 658 331.193 662.477 331.193 668C331.193 673.523 346.863 678 366.193 678Z" fill="#E6E6E6"/>
<path d="M747.193 717C766.523 717 782.193 712.523 782.193 707C782.193 701.477 766.523 697 747.193 697C727.863 697 712.193 701.477 712.193 707C712.193 712.523 727.863 717 747.193 717Z" fill="#E6E6E6"/>
<path d="M820.193 635C839.523 635 855.193 630.523 855.193 625C855.193 619.477 839.523 615 820.193 615C800.863 615 785.193 619.477 785.193 625C785.193 630.523 800.863 635 820.193 635Z" fill="#E6E6E6"/>
<path d="M676.693 606C691.329 606 703.193 602.61 703.193 598.429C703.193 594.247 691.329 590.857 676.693 590.857C662.058 590.857 650.193 594.247 650.193 598.429C650.193 602.61 662.058 606 676.693 606Z" fill="#E6E6E6"/>
<path d="M102.693 598.857C112.358 598.857 120.193 596.427 120.193 593.429C120.193 590.43 112.358 588 102.693 588C93.0284 588 85.1934 590.43 85.1934 593.429C85.1934 596.427 93.0284 598.857 102.693 598.857Z" fill="#E6E6E6"/>
<path d="M33.6934 659.857C43.3583 659.857 51.1934 657.427 51.1934 654.429C51.1934 651.43 43.3583 649 33.6934 649C24.0284 649 16.1934 651.43 16.1934 654.429C16.1934 657.427 24.0284 659.857 33.6934 659.857Z" fill="#E6E6E6"/>
<path d="M33.6934 563.857C43.3583 563.857 51.1934 561.427 51.1934 558.429C51.1934 555.43 43.3583 553 33.6934 553C24.0284 553 16.1934 555.43 16.1934 558.429C16.1934 561.427 24.0284 563.857 33.6934 563.857Z" fill="#E6E6E6"/>
<path d="M783.065 575.954L613.505 569.954L524.085 578.484L371.315 593.054L313.825 598.534L180.685 642.934C180.151 643.112 179.577 643.135 179.03 643C178.483 642.865 177.985 642.578 177.595 642.172C177.204 641.766 176.937 641.257 176.824 640.705C176.711 640.153 176.756 639.581 176.955 639.054L176.965 639.044L200.055 577.974L197.625 576.184L134.085 529.494L133.745 529.244L51.3553 516.684C50.1953 516.506 49.0999 516.035 48.1721 515.316C47.2444 514.598 46.515 513.655 46.0528 512.576C45.5905 511.497 45.4106 510.319 45.53 509.151C45.6494 507.984 46.0642 506.866 46.7353 505.904L172.215 325.844L238.155 231.244L245.305 220.974L519.605 217.184L787.415 567.534C788.018 568.323 788.385 569.267 788.472 570.256C788.559 571.245 788.363 572.239 787.908 573.122C787.452 574.004 786.755 574.739 785.897 575.24C785.04 575.741 784.058 575.989 783.065 575.954Z" fill="#F50057"/>
<path opacity="0.2" d="M309.56 235.588L197.623 576.186L134.09 529.496L172.218 325.848L237.966 231.02L238.153 231.241L309.56 235.588Z" fill="black"/>
<path d="M209.642 366.065C196.941 396.599 192.444 422.102 177.379 417.497C156.753 411.192 178.409 388.89 191.11 358.356C203.812 327.823 212.786 304.401 223.374 306.925C243.113 311.63 222.343 335.531 209.642 366.065Z" fill="#3F3D56"/>
<path d="M238.419 304.947C238.416 302.926 238.015 300.926 237.238 299.06C236.462 297.195 235.326 295.5 233.895 294.074C232.464 292.647 230.765 291.516 228.897 290.746C227.029 289.976 225.028 289.581 223.007 289.584C222.66 289.585 222.316 289.601 221.975 289.624L207.454 287.833C205.788 287.239 204.031 286.937 202.262 286.941C201.774 286.942 201.292 286.968 200.815 287.014L200.255 286.945L200.24 287.081C196.833 287.539 193.676 289.124 191.275 291.585C188.873 294.046 187.365 297.24 186.991 300.658C186.617 304.076 187.398 307.521 189.21 310.443C191.022 313.365 193.761 315.596 196.989 316.78L196.959 317.057L198.387 317.217C199.668 317.551 200.988 317.72 202.312 317.717C202.459 317.717 202.604 317.71 202.75 317.705L217.594 319.368C219.339 320.028 221.19 320.364 223.056 320.36C223.752 320.357 224.447 320.308 225.136 320.213L226.401 320.354L226.409 319.984C229.822 319.215 232.871 317.307 235.054 314.574C237.237 311.841 238.424 308.445 238.419 304.947Z" fill="#F50057"/>
<path opacity="0.2" d="M238.419 304.947C238.416 302.926 238.015 300.926 237.238 299.06C236.462 297.195 235.326 295.5 233.895 294.074C232.464 292.647 230.765 291.516 228.897 290.746C227.029 289.976 225.028 289.581 223.007 289.584C222.66 289.585 222.316 289.601 221.975 289.624L207.454 287.833C205.788 287.239 204.031 286.937 202.262 286.941C201.774 286.942 201.292 286.968 200.815 287.014L200.255 286.945L200.24 287.081C196.833 287.539 193.676 289.124 191.275 291.585C188.873 294.046 187.365 297.24 186.991 300.658C186.617 304.076 187.398 307.521 189.21 310.443C191.022 313.365 193.761 315.596 196.989 316.78L196.959 317.057L198.387 317.217C199.668 317.551 200.988 317.72 202.312 317.717C202.459 317.717 202.604 317.71 202.75 317.705L217.594 319.368C219.339 320.028 221.19 320.364 223.056 320.36C223.752 320.357 224.447 320.308 225.136 320.213L226.401 320.354L226.409 319.984C229.822 319.215 232.871 317.307 235.054 314.574C237.237 311.841 238.424 308.445 238.419 304.947Z" fill="white"/>
<path d="M32.9136 515.152L31.1362 514.219C76.6609 427.45 205.421 242.058 206.716 240.195L208.364 241.341C207.07 243.203 78.3802 428.493 32.9136 515.152Z" fill="#3F3D56"/>
<path d="M172.361 645.187L170.425 644.66C171.363 641.212 264.611 299.17 296.987 241.471L298.737 242.453C266.482 299.938 173.299 641.741 172.361 645.187Z" fill="#3F3D56"/>
<path d="M795.307 578.874C745.595 496.981 557.86 243.356 555.969 240.804L557.582 239.609C559.473 242.162 747.263 495.862 797.022 577.832L795.307 578.874Z" fill="#3F3D56"/>
<path d="M168.748 654.291C172.628 654.285 175.767 650.236 175.759 645.248C175.751 640.259 172.599 636.221 168.719 636.227C164.839 636.233 161.701 640.282 161.709 645.27C161.717 650.258 164.869 654.297 168.748 654.291Z" fill="#3F3D56"/>
<path d="M33.3698 519.033C37.2495 519.027 40.3882 514.978 40.3801 509.99C40.3721 505.002 37.2205 500.963 33.3408 500.969C29.4611 500.975 26.3224 505.024 26.3304 510.012C26.3385 515.001 29.4901 519.039 33.3698 519.033Z" fill="#3F3D56"/>
<path d="M797.169 583.381C801.048 583.374 804.187 579.326 804.179 574.337C804.171 569.349 801.019 565.311 797.14 565.317C793.26 565.323 790.121 569.372 790.129 574.36C790.137 579.348 793.289 583.387 797.169 583.381Z" fill="#3F3D56"/>
<path d="M198.915 250.158L577.536 254.215C577.273 223.292 564.8 193.726 542.836 171.958C520.871 150.19 491.194 137.985 460.27 138L315.774 138.232C255.335 138.33 204.158 185.594 199.266 245.835L198.915 250.158Z" fill="#3F3D56"/>
<path opacity="0.2" d="M531.586 375.314H393.206C391.521 375.313 389.852 375.646 388.297 376.295C386.742 376.943 385.332 377.894 384.147 379.093C382.963 380.291 382.029 381.713 381.398 383.275C380.768 384.838 380.454 386.51 380.476 388.194L380.596 398.314L381.826 506.654L381.846 508.744L381.886 512.194L381.926 515.564L382.156 535.874C382.193 539.179 383.514 542.34 385.839 544.69C388.164 547.039 391.311 548.392 394.616 548.464C394.956 548.464 395.306 548.454 395.656 548.434L428.516 546.434L476.056 543.534L492.836 542.514L496.576 542.284L522.726 540.694H522.736L532.356 540.104C535.592 539.904 538.629 538.478 540.851 536.117C543.073 533.755 544.312 530.637 544.316 527.394V388.044C544.312 384.669 542.97 381.434 540.583 379.047C538.197 376.66 534.961 375.318 531.586 375.314Z" fill="black"/>
<path d="M560.082 357.619C559.581 357.659 559.096 357.81 558.66 358.059C558.225 358.309 557.85 358.652 557.563 359.064L542.315 359.088V355.044C542.312 351.669 540.97 348.434 538.583 346.047C536.196 343.66 532.961 342.318 529.585 342.314H391.205C389.521 342.313 387.852 342.646 386.297 343.295C384.742 343.943 383.332 344.894 382.147 346.093C380.963 347.291 380.028 348.713 379.398 350.275C378.768 351.838 378.454 353.51 378.475 355.194L378.525 359.352L368.691 359.367C368.153 358.793 367.412 358.451 366.626 358.411C363.18 358.416 360.398 365.943 360.413 375.222C360.428 384.501 363.234 392.019 366.68 392.014C367.281 391.948 367.857 391.739 368.359 391.404C368.862 391.069 369.277 390.618 369.569 390.089L557.612 389.786C557.901 390.197 558.277 390.539 558.713 390.787C559.149 391.035 559.635 391.184 560.136 391.222C563.582 391.217 566.364 383.69 566.349 374.411C566.334 365.132 563.528 357.614 560.082 357.619Z" fill="#F50057"/>
<path opacity="0.2" d="M560.082 357.619C559.581 357.659 559.096 357.81 558.66 358.059C558.225 358.309 557.85 358.652 557.563 359.064L542.315 359.088V355.044C542.312 351.669 540.97 348.434 538.583 346.047C536.196 343.66 532.961 342.318 529.586 342.314H391.206C389.521 342.313 387.852 342.646 386.297 343.295C384.742 343.943 383.332 344.894 382.147 346.093C380.963 347.291 380.028 348.713 379.398 350.275C378.768 351.838 378.454 353.51 378.475 355.194L378.525 359.352L368.691 359.367C368.153 358.793 367.412 358.451 366.626 358.411C363.18 358.416 360.398 365.943 360.413 375.222C360.428 384.501 363.234 392.019 366.68 392.014C367.281 391.948 367.857 391.739 368.359 391.404C368.862 391.069 369.277 390.618 369.569 390.089L557.612 389.786C557.901 390.197 558.277 390.539 558.713 390.787C559.149 391.035 559.635 391.184 560.136 391.222C563.582 391.217 566.364 383.69 566.349 374.411C566.335 365.132 563.528 357.614 560.082 357.619Z" fill="white"/>
<path d="M544.591 570.057C543.675 570.914 542.573 571.548 541.371 571.908C540.169 572.269 538.901 572.346 537.664 572.135C536.427 571.924 535.257 571.429 534.243 570.69C533.229 569.951 532.4 568.988 531.821 567.875L524.297 553.43L527.29 546.945L543.419 557.267C544.462 557.935 545.339 558.833 545.983 559.891C546.627 560.95 547.021 562.142 547.134 563.376C547.247 564.61 547.076 565.853 546.636 567.011C546.195 568.169 545.495 569.211 544.591 570.057Z" fill="#FFB8B8"/>
<path d="M577.088 654.335C576.91 652.666 576.114 651.124 574.858 650.011C573.602 648.898 571.976 648.294 570.297 648.317C568.769 648.307 567.281 648.81 566.073 649.747C564.864 650.684 564.006 651.999 563.635 653.482L556.972 685.836C556.752 686.782 556.638 687.75 556.632 688.721C556.632 696.017 562.738 701.087 570.297 701.087C577.857 701.087 583.967 696.017 583.967 688.721C583.963 687.552 583.804 686.389 583.495 685.262L577.088 654.335Z" fill="#3F3D56"/>
<path d="M627.487 668.806C626.809 668.212 626.08 667.679 625.308 667.213L599.855 649.426C597.377 647.87 594.73 647.914 592.808 649.792C591.969 650.59 591.436 651.657 591.303 652.807C591.169 653.958 591.442 655.119 592.076 656.088L611.295 681.348C611.734 681.96 612.224 682.534 612.759 683.064C616.091 686.787 623.478 686.992 627.538 683.064C631.543 679.071 631.495 671.954 627.487 668.806Z" fill="#3F3D56"/>
<path d="M646.614 642.455H620.835C620.009 642.424 619.203 642.72 618.594 643.28C617.986 643.839 617.622 644.617 617.584 645.443C617.571 646.204 617.813 646.948 618.272 647.556C618.731 648.164 619.381 648.601 620.117 648.796L644.436 656.319C647.968 657.142 652.727 653.994 652.727 650.063C652.727 645.062 649.945 642.455 646.614 642.455Z" fill="#3F3D56"/>
<path d="M523.949 645.428C523.922 645.003 523.81 644.588 523.621 644.207C523.432 643.826 523.168 643.486 522.846 643.208C522.524 642.93 522.15 642.719 521.745 642.587C521.34 642.455 520.913 642.405 520.489 642.441H494.71C491.463 642.441 488.725 645.948 488.725 649.879C488.725 653.811 493.344 657.142 496.888 656.319L521.573 648.796C522.313 648.624 522.964 648.185 523.402 647.564C523.84 646.943 524.035 646.183 523.949 645.428Z" fill="#3F3D56"/>
<path d="M541.641 649.456L516.181 667.166C515.39 667.611 514.653 668.146 513.984 668.759C512.112 670.5 511.009 672.913 510.916 675.468C510.823 678.023 511.75 680.509 513.491 682.381C513.649 682.552 513.814 682.716 513.984 682.875C515.981 684.761 518.624 685.812 521.372 685.812C524.119 685.812 526.762 684.761 528.759 682.875C529.303 682.354 529.794 681.78 530.223 681.162L549.457 656.045C550.101 655.088 550.381 653.932 550.247 652.787C550.113 651.641 549.573 650.582 548.725 649.8C547.775 648.914 546.543 648.394 545.246 648.331C543.949 648.268 542.672 648.666 541.641 649.456Z" fill="#3F3D56"/>
<path d="M581.245 614.843C581.54 614.408 581.704 613.898 581.717 613.373C581.717 610.272 575.608 608.117 568.048 608.117C560.489 608.117 554.382 610.272 554.382 613.373C554.393 613.803 554.51 614.224 554.723 614.599L561.385 628.349C562.149 629.646 564.901 630.553 568.048 630.544C571.595 630.544 574.542 629.422 574.839 627.986L581.245 614.843Z" fill="#3F3D56"/>
<path d="M625.288 615.776C621.228 614.107 613.841 614.194 610.509 615.776C610.005 615.986 609.516 616.23 609.045 616.506L589.826 627.241C588.519 628.091 588.827 629.217 590.558 629.917C592.833 630.705 595.298 630.759 597.605 630.072L623.058 622.513C623.796 622.325 624.523 622.1 625.237 621.836C629.245 620.498 629.293 617.474 625.288 615.776Z" fill="#3F3D56"/>
<path d="M650.477 629.801C650.477 628.13 645.718 626.792 642.186 627.142L617.867 630.339C616.414 630.543 615.334 631.016 615.334 631.764C615.334 632.513 616.919 633.034 618.585 633.034H644.364C647.695 633.034 650.477 631.926 650.477 629.801Z" fill="#3F3D56"/>
<path d="M519.323 630.341L494.638 627.143C491.095 626.793 486.475 628.209 486.475 629.88C486.475 631.551 489.213 633.041 492.46 633.041H518.239C520.033 633.041 521.699 632.55 521.699 631.772C521.699 630.994 520.93 630.544 519.323 630.341Z" fill="#3F3D56"/>
<path d="M546.475 629.914C548.276 629.203 548.488 628.128 547.207 627.26L527.973 616.586C527.506 616.304 527.016 616.06 526.509 615.858C521.725 614.193 516.518 614.193 511.734 615.858C511.564 615.925 511.399 615.995 511.241 616.067C507.615 617.724 507.836 620.316 511.734 621.857C512.45 622.132 513.184 622.358 513.931 622.533L539.391 630.06C541.71 630.749 544.186 630.698 546.475 629.914Z" fill="#3F3D56"/>
<path d="M620.479 612.616C620.479 652.379 598.318 653.115 570.981 653.115C543.645 653.115 498.763 645.248 521.484 612.616C545.447 578.199 586.558 512.596 570.981 509.121C570.981 509.121 620.479 572.854 620.479 612.616Z" fill="#F9A825"/>
<path opacity="0.5" d="M588.414 637.084C588.414 652.823 579.642 653.115 568.821 653.115C558 653.115 540.235 650.001 549.228 637.084C558.714 623.46 574.987 597.493 568.821 596.117C568.821 596.117 588.414 621.345 588.414 637.084Z" fill="#FF6584"/>
<path d="M544.315 520.284V527.394C544.311 530.637 543.072 533.755 540.851 536.117C538.629 538.478 535.591 539.904 532.355 540.104L395.655 548.434C393.934 548.54 392.209 548.294 390.585 547.713C388.962 547.131 387.474 546.225 386.211 545.05C384.948 543.876 383.938 542.457 383.24 540.879C382.543 539.302 382.174 537.599 382.155 535.874L381.825 506.654L464.515 505.314L544.315 520.284Z" fill="#3F3D56"/>
<path d="M522.024 555.503L460.353 523.472C460.068 523.325 459.818 523.118 459.62 522.866C459.422 522.615 459.279 522.324 459.202 522.013L445.824 468.095C445.048 464.966 445.467 461.661 446.999 458.825C448.532 455.989 451.067 453.827 454.11 452.763L457.333 451.635C458.051 451.383 458.813 451.282 459.573 451.337C460.332 451.392 461.072 451.602 461.746 451.955C462.421 452.307 463.016 452.795 463.495 453.387C463.973 453.978 464.325 454.662 464.529 455.396L477.715 502.865C477.839 503.309 478.095 503.705 478.45 503.999L528.698 545.633C529.131 545.992 529.415 546.5 529.493 547.058C529.571 547.615 529.439 548.182 529.121 548.647L524.928 554.775C524.616 555.23 524.149 555.555 523.614 555.689C523.079 555.824 522.513 555.757 522.024 555.503Z" fill="#E6E6E6"/>
<path d="M481.397 471.621C451.486 455.873 420.176 447.965 386.616 452.665C396.732 435.52 404.246 419.669 403.743 407.803C403.527 403.99 404.25 400.182 405.847 396.713C407.445 393.243 409.869 390.219 412.907 387.904C417.795 384.28 423.72 382.325 429.806 382.327C435.24 379.904 441.396 379.66 447.006 381.643C449.386 382.54 451.551 383.928 453.359 385.718C455.167 387.509 456.576 389.66 457.496 392.032C458.643 394.811 461.113 397.246 464.696 399.391C468.015 401.312 470.719 404.137 472.492 407.536C474.852 412.233 475.015 416.962 471.921 421.736C483.504 433.904 483.536 452.187 481.397 471.621Z" fill="#2F2E41"/>
<path d="M438.995 432.212C450.566 432.212 459.946 422.831 459.946 411.26C459.946 399.689 450.566 390.309 438.995 390.309C427.424 390.309 418.043 399.689 418.043 411.26C418.043 422.831 427.424 432.212 438.995 432.212Z" fill="#FFB8B8"/>
<path d="M448.972 456.656L424.528 459.15C425.84 444.858 426.356 431.67 424.528 421.736H448.972C444.329 437.553 444.737 448.826 448.972 456.656Z" fill="#FFB8B8"/>
<path d="M462.065 456.114C462.045 458.304 461.999 460.47 461.925 462.614C461.415 477.954 459.485 491.764 454.225 501.934C453.157 504.039 451.881 506.033 450.415 507.884C450.405 507.903 450.392 507.92 450.375 507.934C450.274 508.074 450.164 508.208 450.045 508.334C448.97 509.669 447.775 510.904 446.475 512.024L436.465 522.524L436.005 523.004L433.085 524.954L418.045 534.974L381.925 515.564L381.885 512.194L381.845 508.744C389.875 497.364 394.885 482.564 398.065 465.714C398.935 461.104 399.675 456.334 400.305 451.434C400.735 448.044 401.115 444.584 401.445 441.074C401.496 439.996 401.861 438.957 402.495 438.084C402.495 438.082 402.495 438.081 402.496 438.08C402.496 438.079 402.497 438.077 402.498 438.077C402.499 438.076 402.5 438.075 402.501 438.074C402.503 438.074 402.504 438.074 402.505 438.074C404.045 436.114 407.105 436.154 410.805 435.954C415.995 435.674 421.105 432.984 425.695 435.524C425.809 435.576 425.92 435.636 426.025 435.704L439.495 450.664L445.685 443.994L445.975 443.684L458.725 449.144C460.029 449.707 461.086 450.723 461.699 452.004C462.313 453.285 462.443 454.744 462.065 456.114Z" fill="#E6E6E6"/>
<path d="M433.635 529.645C433.636 532.196 433.154 534.723 432.215 537.095L428.515 546.435L395.655 548.435C395.305 548.455 394.955 548.465 394.615 548.465C391.311 548.393 388.164 547.039 385.839 544.69C383.514 542.341 382.193 539.18 382.155 535.875L381.925 515.565L381.885 512.195L393.845 517.265L405.505 511.005C406.141 510.733 406.792 510.5 407.455 510.305C408.319 510.032 409.201 509.821 410.095 509.675H410.105C410.535 509.605 410.965 509.545 411.395 509.505C416.338 509.01 421.289 510.352 425.305 513.275C427.652 514.975 429.601 517.166 431.015 519.695C431.123 519.869 431.22 520.049 431.305 520.235C432.1 521.725 432.699 523.311 433.085 524.955C433.449 526.492 433.634 528.066 433.635 529.645Z" fill="#2F2E41"/>
<path opacity="0.2" d="M424.279 469.873L428.65 489.928L455.207 512.774L431.762 488.83L424.279 469.873Z" fill="black"/>
<path opacity="0.2" d="M399.836 479.352L407.817 511.777L431.263 520.258L409.314 509.283L399.836 479.352Z" fill="black"/>
<path d="M464.187 412.507C448.745 405.402 431.287 403.377 415.799 411.01L417.794 393.052L451.716 387.564L464.187 412.507Z" fill="#2F2E41"/>
<path d="M588.315 570.313L474.768 550.807L476.16 543.947L588.315 570.313Z" fill="#3F3D56"/>
<path d="M493.709 555.093C492.793 555.95 491.691 556.583 490.489 556.943C489.287 557.304 488.019 557.382 486.782 557.17C485.546 556.959 484.375 556.464 483.361 555.725C482.347 554.986 481.518 554.023 480.939 552.91L473.416 538.465L476.409 531.98L492.537 542.302C493.58 542.97 494.458 543.868 495.101 544.927C495.745 545.985 496.139 547.177 496.252 548.411C496.365 549.645 496.195 550.888 495.754 552.046C495.313 553.204 494.614 554.246 493.709 555.093Z" fill="#FFB8B8"/>
<path d="M471.142 540.537L409.471 508.506C409.186 508.358 408.936 508.151 408.738 507.9C408.54 507.648 408.397 507.357 408.32 507.046L394.942 453.128C394.166 450 394.585 446.694 396.117 443.858C397.65 441.022 400.185 438.861 403.228 437.796L406.451 436.668C407.169 436.416 407.932 436.315 408.691 436.37C409.45 436.425 410.19 436.636 410.864 436.988C411.539 437.341 412.134 437.828 412.613 438.42C413.092 439.012 413.444 439.696 413.647 440.429L426.833 487.898C426.957 488.343 427.213 488.738 427.568 489.033L477.816 530.666C478.249 531.025 478.533 531.534 478.611 532.091C478.69 532.649 478.557 533.215 478.239 533.68L474.046 539.808C473.734 540.263 473.267 540.589 472.732 540.723C472.197 540.857 471.631 540.791 471.142 540.537Z" fill="#E6E6E6"/>
<path d="M576.076 573.866C576.621 573.973 577.187 573.86 577.649 573.551C578.111 573.243 578.432 572.765 578.543 572.22L579.681 566.526C579.79 565.981 579.678 565.415 579.369 564.952C579.061 564.489 578.582 564.168 578.036 564.059L561.555 560.764C561.01 560.657 560.444 560.769 559.982 561.078C559.519 561.386 559.198 561.865 559.088 562.41L557.95 568.104C557.896 568.374 557.896 568.652 557.95 568.922C558.003 569.192 558.109 569.449 558.262 569.678C558.414 569.907 558.611 570.104 558.84 570.257C559.068 570.41 559.325 570.517 559.595 570.571L576.076 573.866Z" fill="#E6E6E6"/>
</g>
<defs>
<clipPath id="clip0_105_58">
<rect width="939.002" height="727" fill="white" transform="translate(-57 -10)"/>
</clipPath>
</defs>
</svg>
